<?xml version="1.0" encoding="UTF-8" standalone="no"?>
<svg width="813px" height="177px" viewBox="0 0 813 177" version="1.1" xmlns="http://www.w3.org/2000/svg" xmlns:xlink="http://www.w3.org/1999/xlink" xmlns:sketch="http://www.bohemiancoding.com/sketch/ns">
    <!-- Generator: Sketch 3.3.2 (12043) - http://www.bohemiancoding.com/sketch -->
    <title>Artboard 2</title>
    <desc>Created with Sketch.</desc>
    <defs>
        <path id="path-1" d="M0.06,0.647 L812.857,0.647 L812.857,177 L0.06,177"></path>
        <path id="path-3" d="M0.06,0.647 L812.857,0.647 L812.857,177 L0.06,177"></path>
    </defs>
    <g id="Page-1" stroke="none" stroke-width="1" fill="none" fill-rule="evenodd" sketch:type="MSPage">
        <g id="Artboard-2" sketch:type="MSArtboardGroup">
            <g id="gradle-logo-horizontal" sketch:type="MSLayerGroup">
                <g id="Group-3">
                    <mask id="mask-2" sketch:name="Clip 2" fill="white">
                        <use xlink:href="#path-1"></use>
                    </mask>
                    <g id="Clip-2"></g>
                    <path d="M273.321,71.524 C279.561,56.968 279.485,42.729 275.667,31.404 C270.982,17.509 251.648,-0.775 245.421,6.489 C244.597,7.451 233.47,6.146 231.673,8.587 C229.073,12.119 230.532,13.211 231.833,14.37 C235.718,17.831 245.744,21.665 250.198,33.469 C252.082,38.461 256.558,50.212 248.857,57.203 C240.125,65.131 230.373,66.957 190.481,29.834 C148.023,-9.676 90.961,6.442 72.055,12.707 C53.148,18.97 44.458,25.27 51.929,39.839 C62.081,59.637 58.716,53.562 68.561,69.951 C84.197,95.98 118.424,57.972 118.424,57.972 C92.927,96.36 71.07,87.085 62.687,73.665 C55.131,61.57 49.261,47.626 49.261,47.626 C-15.318,70.889 2.154,173.582 2.154,173.582 L34.225,173.582 C42.402,135.77 71.636,137.164 76.647,173.582 L101.117,173.582 C122.76,99.747 168.987,173.582 168.987,173.582 L196.439,173.582 C196.439,134.186 192.311,119.351 212.49,116.618 C246.905,111.955 262.905,95.822 273.321,71.524" id="Fill-1" fill="#0B262D" sketch:type="MSShapeGroup" mask="url(#mask-2)"></path>
                </g>
                <path d="M348.969,87.887 C348.969,87.887 349.223,110.209 348.869,117.638 C347.791,140.229 333.166,176.214 279.776,176.033 C232.086,175.872 207.057,137.723 207.198,96.159 C207.362,47.594 239.635,13.575 282.075,13.718 C314.233,13.827 337.792,33.596 347.112,59.441 L319.51,70.505 C316.695,61.964 308.457,39.841 282.206,39.752 C253.11,39.654 238.805,64.982 238.703,95.389 C238.588,129.298 257.117,148.831 282.275,148.915 C298.463,148.97 319.696,140.51 322.413,113.173 L281.958,113.037 L282.044,87.661 L348.969,87.887" id="G" fill="#59B145" sketch:type="MSShapeGroup"></path>
                <path d="M390.095,63.086 L390.043,78.619 C393.344,72.942 400.606,60.059 425.105,60.798 L425.015,87.706 C419.327,87.906 409.482,88.091 401.367,94.189 C390.181,102.683 389.924,113.839 389.863,131.996 L389.726,172.468 L364.35,172.382 L364.719,63.001 L390.095,63.086" id="Fill-5" fill="#59B145" sketch:type="MSShapeGroup"></path>
                <path d="M503.11,118.378 C497.851,120.986 491.937,122.934 480.117,124.864 C470.706,126.144 458.23,128.29 458.191,139.884 C458.162,148.416 465.366,152.816 475.866,152.851 C489.211,152.896 498.638,146.802 501.504,140.249 C503.047,136.973 503.058,133.692 503.069,130.41 L503.11,118.378 L503.11,118.378 Z M435.589,95.398 C436.045,89.931 436.498,85.338 440.02,79.006 C450.584,60.01 476.617,60.098 483.618,60.121 C494.118,60.157 506.802,61.512 516.408,67.233 C529.288,75.151 529.473,85.434 529.433,97.247 L529.237,155.218 C529.209,163.532 529.2,166.375 533.99,172.955 L502.926,172.85 C502.716,170.224 502.293,165.847 502.298,164.316 C496.594,169.109 484.978,175.414 469.884,175.363 C445.164,175.28 430.34,159.916 430.403,141.103 C430.422,135.633 431.751,130.607 433.953,126.239 C441.883,110.514 458.738,107.071 469.245,105.138 C505.069,99.163 502.884,95.626 502.385,90.302 C501.908,85.209 496.656,80.51 484.643,80.469 C473.705,80.432 467.786,83.912 465.149,87.404 C462.293,90.894 462.502,93.958 462.492,97.021 L435.589,95.398 L435.589,95.398 Z" id="a" fill="#59B145" sketch:type="MSShapeGroup"></path>
                <path d="M614.538,94.909 C610.621,88.989 604.072,84.81 595.321,84.781 C577.602,84.721 569.016,100.662 568.958,117.944 C568.951,119.913 569.06,152.728 594.655,152.815 C608.218,152.86 620.502,142.839 620.363,119.212 C620.168,112.21 619.328,102.145 614.538,94.909 L614.538,94.909 Z M646.954,18.889 L646.433,173.335 L620.4,173.247 L620.435,162.746 C612.308,172.563 601.356,176.463 589.981,176.425 C563.948,176.337 541.481,156.791 541.603,120.696 C541.713,88.1 560.183,60.38 591.466,60.486 C602.185,60.522 612.457,63.619 620.739,72.835 L620.921,18.801 L646.954,18.889 L646.954,18.889 Z" id="d" fill="#59B145" sketch:type="MSShapeGroup"></path>
                <g id="Group-12">
                    <mask id="mask-4" sketch:name="Clip 9" fill="white">
                        <use xlink:href="#path-3"></use>
                    </mask>
                    <g id="Clip-9"></g>
                    <path d="M692.674,19.043 L692.153,173.489 L665.682,173.4 L666.204,18.954 L692.674,19.043" id="Fill-8" fill="#59B145" sketch:type="MSShapeGroup" mask="url(#mask-4)"></path>
                    <path d="M784.046,105.107 C781.696,88.036 771.216,82.094 759.622,82.055 C745.621,82.008 735.968,90.068 732.855,104.934 L784.046,105.107 L784.046,105.107 Z M810.101,147.774 C797.903,169.248 782.489,177.075 760.176,177 C731.518,176.903 704.016,158.653 704.152,118.401 C704.276,81.649 727.972,60.947 758.817,61.051 C787.694,61.148 799.667,78.471 801.844,81.76 C810.77,94.479 812.675,113.517 812.857,124.456 L731.915,124.183 C734.92,141.475 745.605,151.355 762.888,151.413 C780.826,151.474 785.602,140.92 788.899,136.338 L810.101,147.774 L810.101,147.774 Z" id="Fill-10" fill="#59B145" sketch:type="MSShapeGroup" mask="url(#mask-4)"></path>
                    <path d="M278.201,44.764 C272.353,45.307 266.557,46.223 260.962,47.768 C260.79,47.983 260.644,48.212 260.459,48.419 C257.929,51.268 254.803,54.002 251.269,55.496 C250.804,55.766 250.326,55.99 249.841,56.186 C249.539,56.534 249.218,56.875 248.857,57.203 C240.125,65.13 229.655,66.957 190.481,29.834 C148.383,-10.06 90.961,6.442 72.055,12.707 C53.148,18.97 44.458,25.27 51.929,39.839 C62.081,59.637 58.716,53.562 68.561,69.951 C84.197,95.98 118.424,57.972 118.424,57.972 C92.927,96.359 71.07,87.085 62.687,73.665 C55.131,61.57 49.261,47.626 49.261,47.626 C-15.318,70.889 2.154,173.582 2.154,173.582 L34.225,173.582 C42.402,135.77 71.635,137.164 76.647,173.582 L101.117,173.582 C122.76,99.747 168.987,173.582 168.987,173.582 L196.439,173.582 C196.439,134.186 192.311,119.351 212.49,116.618 C246.905,111.955 262.905,95.822 273.321,71.524 C277.297,62.247 278.692,53.108 278.201,44.764" id="Fill-11" fill="#0B262D" sketch:type="MSShapeGroup" mask="url(#mask-4)"></path>
                </g>
                <path d="M161.787,55.069 C161.787,55.069 176.515,59.934 196.439,66.573 C195.292,71.89 185.382,82.087 172.619,77.832 C155.754,72.21 161.787,55.069 161.787,55.069" id="Fill-13" fill="#FFFFFF" sketch:type="MSShapeGroup"></path>
                <g id="Group-17" transform="translate(169.000000, 0.000000)" fill="#0B262D" sketch:type="MSShapeGroup">
                    <path d="M18.582,64.907 C19.086,69.653 15.531,73.92 10.642,74.439 C5.753,74.958 1.382,71.532 0.878,66.787 C0.374,62.042 3.929,57.774 8.818,57.255 C13.707,56.736 18.078,60.162 18.582,64.907" id="Fill-14"></path>
                    <path d="M62.833,14.37 C63.921,15.339 65.313,16.265 66.769,17.211 C73.455,11.725 82.103,11.783 89.37,8.809 C82.863,2.811 72.591,-1.781 69.304,2.053 C68.48,3.015 64.47,6.146 62.673,8.586 C60.073,12.119 61.532,13.211 62.833,14.37" id="Fill-16"></path>
                </g>
            </g>
        </g>
    </g>
</svg>